<svg width="71" height="55" viewBox="0 0 71 55" fill="none" xmlns="http://www.w3.org/2000/svg">
<path d="M3.14398 54.47C2.48065 54.47 1.88365 54.271 1.35298 53.873C0.954981 53.3423 0.755981 52.679 0.755981 51.883V32.381C0.755981 32.1157 0.954981 31.386 1.35298 30.192L18.467 3.12798C18.9976 2.19932 19.7273 1.53598 20.656 1.13798C21.7173 0.607314 22.7786 0.34198 23.84 0.34198H27.223C28.019 0.34198 28.616 0.673646 29.014 1.33698C29.412 2.00031 29.4783 2.66364 29.213 3.32698L20.656 22.829C20.1253 24.421 19.86 25.3496 19.86 25.615C19.86 26.6763 20.5233 27.2733 21.85 27.406L25.233 27.605C26.5596 27.7376 27.422 28.0693 27.82 28.6C28.3507 28.998 28.616 29.7277 28.616 30.789V51.485C28.616 53.475 27.7537 54.47 26.029 54.47H3.14398ZM44.536 54.47C42.944 54.47 42.148 53.6077 42.148 51.883V32.381C42.148 32.1157 42.347 31.386 42.745 30.192L59.66 3.12798C60.7213 1.27065 62.5787 0.34198 65.232 0.34198H68.615C69.411 0.34198 70.008 0.673646 70.406 1.33698C70.804 2.00031 70.8703 2.66364 70.605 3.32698L61.849 22.829C61.451 24.023 61.252 24.8853 61.252 25.416C61.252 26.61 61.9153 27.2733 63.242 27.406L66.625 27.605C67.819 27.7376 68.6813 28.0693 69.212 28.6C69.7427 28.998 70.008 29.7277 70.008 30.789V51.485C70.008 53.475 69.1457 54.47 67.421 54.47H44.536Z" fill="#FFCC00"/>
</svg>
