<svg width="34" height="34" viewBox="0 0 34 34" fill="none" xmlns="http://www.w3.org/2000/svg">
<path d="M7.14299 21.4838C7.14299 23.4496 5.5372 25.0553 3.57149 25.0553C1.60579 25.0553 0 23.4496 0 21.4838C0 19.5181 1.60579 17.9124 3.57149 17.9124H7.14299V21.4838Z" fill="#A7A2B6"/>
<path d="M8.94418 21.484C8.94418 19.5183 10.55 17.9125 12.5157 17.9125C14.4814 17.9125 16.0872 19.5183 16.0872 21.484V30.4265C16.0872 32.3922 14.4814 33.998 12.5157 33.998C10.55 33.998 8.94418 32.3922 8.94418 30.4265V21.484Z" fill="#A7A2B6"/>
<path d="M12.515 7.14299C10.5493 7.14299 8.94351 5.5372 8.94351 3.57149C8.94351 1.60579 10.5493 0 12.515 0C14.4807 0 16.0865 1.60579 16.0865 3.57149V7.14299H12.515Z" fill="#A7A2B6"/>
<path d="M12.5141 8.94348C14.4798 8.94348 16.0856 10.5493 16.0856 12.515C16.0856 14.4807 14.4798 16.0865 12.5141 16.0865H3.57149C1.60579 16.0865 0 14.4807 0 12.515C0 10.5493 1.60579 8.94348 3.57149 8.94348H12.5141Z" fill="#A7A2B6"/>
<path d="M26.8559 12.5157C26.8559 10.55 28.4617 8.94421 30.4274 8.94421C32.3931 8.94421 33.9989 10.55 33.9989 12.5157C33.9989 14.4814 32.3931 16.0872 30.4274 16.0872H26.8559V12.5157Z" fill="#A7A2B6"/>
<path d="M25.0549 12.5141C25.0549 14.4798 23.4491 16.0856 21.4834 16.0856C19.5177 16.0856 17.9119 14.4798 17.9119 12.5141V3.57149C17.9119 1.60579 19.5177 0 21.4834 0C23.4491 0 25.0549 1.60579 25.0549 3.57149V12.5141Z" fill="#A7A2B6"/>
<path d="M21.4839 26.856C23.4496 26.856 25.0554 28.4617 25.0554 30.4274C25.0554 32.3932 23.4496 33.9989 21.4839 33.9989C19.5182 33.9989 17.9124 32.3932 17.9124 30.4274V26.856H21.4839Z" fill="#A7A2B6"/>
<path d="M21.4838 25.0549C19.5181 25.0549 17.9124 23.4491 17.9124 21.4834C17.9124 19.5177 19.5181 17.9119 21.4838 17.9119H30.4264C32.3921 17.9119 33.9979 19.5177 33.9979 21.4834C33.9979 23.4491 32.3921 25.0549 30.4264 25.0549H21.4838Z" fill="#A7A2B6"/>
</svg>
