<svg xmlns="http://www.w3.org/2000/svg" viewBox="0 0 208 1005" width="208" height="1005">
	<style>
		tspan { white-space:pre }
		.shp0 { fill: #e5bb98 } 
		.txt1 { font-size: 16px;fill: #000000;font-weight: 400;font-family: "DejaVuSans", "DejaVu Sans" } 
		.txt2 { font-size: 26px;fill: #000000;font-weight: 400;font-family: "DejaVuSans", "DejaVu Sans" } 
	</style>
	<g id="Layer">
		<path id="Layer" fill-rule="evenodd" class="shp0" d="M105.7 323.6C105.3 330.3 105.6 336.9 105.8 343.9C106.8 342.9 107.5 342.2 108.7 341C108.6 347.7 108.3 354 109.6 360C109.7 360.4 109.4 361.3 109.3 361.3C103.7 362.1 109.5 368.1 107.1 370.3C108.9 376.7 108.1 383 106.7 389.3C106.52 390.13 106.67 391.12 106.7 392.05C106.1 399.83 106.8 407.52 107.3 415.3C109.08 409.57 107.63 403.64 108.47 397.9C112.68 410.24 110.61 432.46 113 443.3C114.1 448.2 112.1 453.1 112.7 458.2C113.1 461.5 115.1 466 111 468.6C110.2 469.1 110.7 471.5 111.4 472.7C112.9 475.5 112.4 478.1 111.9 481.2C110.6 489.2 111.6 501.3 112.6 509.4C106.2 504.7 108.7 517.5 110.3 527.1C110.5 528.6 111.2 529.9 109.6 531.5C105.8 520.9 106.3 496.7 102.8 482.4C102.7 487.7 102.9 493 103.1 498.2C103.2 500.4 104.3 501.7 105.6 502.7C103.8 503.5 103.9 505.3 103.8 507.5C103.3 513.2 105.5 518.8 104.1 525C102.6 522.9 103.2 520.6 102.9 518.7C102.7 517 102.8 514.7 101.6 514C97.9 512 98.4 507.9 98.3 504C98.1 494.2 95.8 484.9 94.9 475.3C93.8 463.2 93.2 451 92.2 438.9C92.1 437.2 92.5 435.2 91.4 434C89.8 432.3 89.7 436.2 88.3 435.6C88.05 435.52 87.87 435.09 87.64 434.72C85 440.15 84.82 443.45 87 450.4C89.1 447.5 89.1 447.5 90 444C91.1 446.3 91.1 448.7 90.5 451.2C89.4 456.2 88.1 461.2 87.6 466.4C87.5 467.1 87.4 468.2 87.1 468.4C80.8 472.1 82.5 480.2 83.2 485.8C83.6 488.8 86.5 515.9 87.6 520C88.2 522.2 88.9 525.5 85.8 526.6C84.5 527.1 84.9 529.2 84.9 530.5C85.3 541.3 84.9 537.4 93.1 599.2C93.5 602.4 93.9 605.4 92.5 608.6C91.7 610.3 91.2 612.9 91.9 615.1C93.6 620.6 94.7 626.2 95 632.2C96 631.8 96.3 631.1 96.2 630.4C93.2 612.9 101.9 617.3 97.3 599.1C95.5 592.2 95.2 584.9 93.7 578C90.7 564.3 90.4 550.1 88.3 536.2C88 534.2 87.6 532 88.6 530.5C91.3 526.5 90.6 521.6 89.7 517.7C88.5 512.5 89.9 507.5 88.7 502.6C89.1 502.5 89.5 502.4 89.9 502.3C90.4 506.5 91.1 510.8 91.4 515C91.7 519.3 92.9 522.5 95.7 524.4C97.7 522.8 96.7 520 97.6 517.3C100.1 531.7 102.4 545.4 101 560.6C98.3 552.6 99.8 543.5 95.4 537.1C93.7 546.8 98 555.2 98.4 564.4C98.8 573.7 100.3 582.9 101.5 593.3C100.2 591.7 99.7 591.1 98.9 590C104.7 626.6 104.9 613 109.4 642C109.6 643.2 109.4 644.5 110.7 645.5C113.2 642.1 110.2 638 111.3 634.4C113 635.4 114.6 637 114.5 639.2C114.2 644.3 120.3 643.6 119.1 648.3C118 652.4 118.6 655.6 119.7 659C122.4 666.9 123.7 675.5 126 684C122.9 681.1 122.5 681.2 122.1 685.1C121.7 688.7 122.2 692 123.4 695.3C124.6 698.4 127.5 709.4 125.1 710.6C123.9 711.3 122.6 710.5 122.4 709C121.5 702.8 117.7 698.2 117.4 691.8C117.1 687 116 682.6 113.7 677.5C112.7 681.6 113.4 684.8 114.2 687.9C117.2 700 119.1 712.5 122.7 724.3C123.6 727.2 124.1 730.5 123.6 734C121.5 734.3 122.2 730.7 120.7 730.3C120.3 736.4 122.5 741.7 123.6 747.3C114.8 726.2 119.8 729.5 115.1 712.7C110.6 696.6 107.2 680 104 663.4C103.8 662.3 103.6 660.9 102.4 660.7C101.3 662.7 102.5 664.4 102.8 666.3C104.5 679.5 106.9 692.5 110.8 704.9C111.1 706 111.5 707.4 111.3 708.5C109.9 717.5 112.5 725.1 115.7 732.4C118.4 738.5 118.8 745.6 120.4 752.2C120.6 752.9 120.3 753.9 120.6 754.4C124.7 761.8 125 770.8 126.6 779.3C127.6 784.5 128.4 789.8 130.5 795.1C128.7 794.1 128.5 791.6 126.9 791.1C125.6 790.7 124.9 789.2 125.3 787.7C126.4 783 124.1 779.3 122.8 775.8C118 763 113.6 742.8 111.3 736.8C110.7 740 111.8 741.8 112.1 743.7C111.9 744.5 111.6 744.6 111.3 744C104.7 731.4 100.8 733.2 101.2 737.4C101.5 740.8 102.3 744.1 102.1 747.6C99.6 740.5 97.1 733.4 94.3 725.3C92.5 731.1 94.8 735.7 93.9 740.9C89.7 731.6 88 721.3 84.3 712.3C83.3 712.8 83.5 713.8 83.5 714.8C83.9 719.3 86.5 724 82.9 728.2C84.1 732.2 83.3 736.5 83.8 740.7C84.9 749.4 88.7 756.8 89.6 765.4C89.7 766.8 90.3 767.7 91.1 768.3C95.1 771.1 93.4 782.2 96.4 786.6C99.3 790.8 99.7 795.9 101.4 800.5C102.6 804 102.9 808.2 105.8 810.4C106.4 807.6 104.5 805.3 104.9 801.7C107.4 805.1 109.2 809.2 108.7 812.9C108.3 816.5 111.2 820.8 107.8 823.8C107.6 824 107.8 825.3 108 825.8C109.8 830 112.2 833.9 112.3 839.3C112.3 841.1 114 840.8 115 841.2C118.2 842.7 120 845.5 120.2 850.5C120.3 853 116.5 853.5 119 857C120.2 858.7 120.6 862.5 120.2 864.9C118.6 873.48 122.88 879.77 124.39 887.15C127.91 890.1 128.33 895.78 130.3 900.1C133.1 906.3 135.8 912.5 138.9 918.4C140.3 921 142.9 923.7 140 927.4C139.4 928.2 140 929.3 140.3 930.1C143.5 938.1 145.3 947 149.7 954.4C156 965.1 161.2 976.9 166.2 989C167.4 992 168.3 995.2 169 999.9C165.4 997.2 164.2 993.2 162.3 990.2C157 981.6 152 972.6 147.5 963.2C147.2 962.6 146.8 962 146.4 961.5C137.6 952 132.6 938.4 126.2 926.4C125.7 927.7 127 929.1 125.9 930.7C123.9 927.8 121.7 925.1 121.5 920.8C121.2 916.7 118.6 914.6 117.3 911.3C114.9 905.1 113 898.7 111 892.4C107.5 881.2 103.6 873.2 92.9 846.9C91.7 843.9 91.2 840.5 87.6 840.5C85.8 840.5 84.6 837.8 85.5 834.8C86.5 831.6 86 829.4 83.3 828.8C82.1 828.5 81.6 827.7 82.3 826.4C83.5 824 82.7 822 81.8 820.2C78.9 813.9 76.7 806.9 73 801.4C70.7 798 70.6 793.9 69.8 789.9C68.6 783.2 65.1 777.7 64.6 769.5C63 772.2 64 773.6 64.3 774.9C65.8 781.6 65.8 778.5 65.4 785.4C64.2 786.3 63.6 785.5 63.4 784.6C61.9 776.3 58.4 769.2 55.7 761.7C54.6 758.6 54.4 755 53.9 751.5C50.9 729.1 46.1 742.2 44.3 720.8C43.3 709 40.6 698 37.2 687.3C35.1 680.8 32.1 659.8 32.1 659.8C26.4 647 26.3 632.2 23.5 618.3C11.5 559 9.9 514.4 9.4 505.7C9.2 501.7 8.6 497.8 7.6 494C6.8 491 5.9 488.2 6.9 484.7C7.8 481.6 7 477.2 5.2 475.8C2 473.4 2.4 469.7 2.2 466.3C1.8 456.1 1.4 445.8 1.5 435.6C1.6 423.8 -0.3 412.2 0.5 400.5C0.8 396 0.2 391.4 1 387.1C3.2 374.3 1.3 361.2 2.6 348.4C3 345.1 1.4 337.6 1.9 334.3C3.7 322.2 3.1 309.9 3.4 297.7C4.2 266.3 6.4 235.1 10.4 204.1C11 199.4 12 179.2 13.8 167.9C19.6 130 13.3 147.8 21.3 121.6C21.8 120 22.6 118.5 23 116.9C24.3 111.6 25.7 106.7 30.7 105.8C31.8 105.6 32.7 103.7 33.7 102.6C35 101.1 36.1 98.3 38.2 101.3C38.6 101.9 39.3 101.3 39.6 100.7C41.4 96.7 44.5 94.7 46.9 91.7C49 89.1 49.8 85.2 48.6 81.3C45.3 70.8 56.2 76 51.3 64.3C49.3 59.6 51 56.9 46.7 55.3C45.2 54.8 44.2 52 42.4 49.5C49.9 47.2 56.5 49.4 63.2 49.5L63.1 49.5C65 52.4 66.5 55.8 69.7 56.6C71.2 57 72.4 59.1 74 60.7C71.7 63.5 68.9 63.7 66.5 65.1C65.3 65.9 63.3 66.6 63.9 69C64.4 71.1 66.1 70.1 67.3 69.7C72 68.2 76.8 69.3 81.5 68.2C82 68.1 82.6 68.4 82.9 69.9C80 70.5 77.6 72.2 76.1 75.8C74.4 79.8 71.7 74.7 68.6 75.1C65.4 75.6 62.5 77 62.2 82.7C70.7 86.6 68.7 82.4 76.6 84.2C80.4 85.1 82.7 84.1 84.8 80C85 79.6 85.1 79.1 85.3 78.7C86.6 76.2 88.6 73.3 90.7 74.8C94.2 77.3 89.1 86.3 90.2 91.7C92.9 87 96.1 83.8 98 79.2C99 76.8 99.9 75.3 102.3 76.1C104.4 76.9 106.4 73.8 109.1 75.2C109.89 77.57 107.94 80.14 108.87 82.71C107.25 84.12 106.4 86.37 106.4 88.9C106.3 92 105.6 94.8 104.7 97.5C101.3 109.1 98.8 121 97.5 133.3C97.1 137.4 94.5 140.8 95.2 145.4C96.96 145.4 97.48 142.92 98.9 142.62C97.42 148.35 97.59 154.76 94.6 159.73C94.61 160.42 94.68 161.33 94.4 161.8C90.1 168.7 89.6 176.7 90.8 185.1C91 186.8 91 188.8 90 190C86.95 193.74 87.29 198.75 87.01 203.58C93.9 196.14 89.49 193.99 93.8 185.89C95.07 190.17 92.42 202.03 93.3 207.4C95.69 205.31 95 200.13 98.17 199.8C97.33 194.08 98.52 188.84 100.7 183.6C100.3 188.4 101.6 191.7 104.4 194.4C106.3 196.2 106 199.7 106.4 202.8C110.79 185.13 114.88 167.47 116.19 148.9C117.23 147.81 117.7 146.25 117.8 144.5C118.6 135.7 120.8 127.1 119.1 118.1C118.9 117.2 119.1 116.1 119.3 115.2C119.4 114.6 119.9 114 120.3 113.5C122.1 113.9 121.3 117.1 123.1 117.7C125 118.4 124.7 120.6 124.2 122.6C120.4 137.8 119.9 153.9 116.4 169.2C112.1 187.8 115.2 189.5 114.3 198C114.2 199 113.8 199.9 113.8 200.9C113.4 215.9 108.8 229.9 107.5 244.7C106.8 252.4 107.3 260 107.2 267.7L107.3 267.5C105.9 275.7 105.7 284 106.2 292.3C106.6 298.86 106.8 299.1 111.8 297.73C111.6 301.62 111.3 305.51 111.1 310.5C109.4 307.4 107.2 305.9 107.5 301.9C106.2 304.3 105.6 306.8 106.3 308.6C108.2 313.9 107.8 319 106.5 324.2L105.7 323.6ZM108.47 397.9C108.45 397.83 108.42 397.77 108.4 397.7L108.5 397.7C108.49 397.77 108.48 397.83 108.47 397.9ZM87.64 434.72C87.66 434.68 87.68 434.64 87.7 434.6C87.65 434.49 87.61 434.38 87.57 434.27C87.54 434.35 87.52 434.42 87.5 434.5C87.55 434.57 87.6 434.64 87.64 434.72ZM87.6 428.6C86.38 431.13 86.92 432.69 87.57 434.27C88.02 432.65 88.17 431.08 87.6 428.6ZM121.9 886.1C122.6 888.1 122.7 890.4 124.2 891.5C125.07 889.75 124.35 888.48 124.21 887.13C123.49 886.84 122.82 886.47 121.9 886.1ZM124.39 887.15C124.33 887.1 124.26 887.05 124.2 887C124.2 887.04 124.21 887.08 124.21 887.13C124.27 887.15 124.34 887.18 124.4 887.2C124.4 887.18 124.39 887.17 124.39 887.15ZM108.87 82.71C108.91 82.67 108.96 82.64 109 82.6L108.9 82.8C108.89 82.77 108.88 82.74 108.87 82.71ZM98.9 142.62C98.9 142.61 98.9 142.61 98.9 142.6L99 142.6C98.96 142.6 98.93 142.61 98.9 142.62ZM94.6 159.73C94.6 159.69 94.6 159.64 94.6 159.6C94.57 159.66 94.53 159.71 94.5 159.75C94.5 159.8 94.5 159.85 94.5 159.9C94.53 159.85 94.57 159.79 94.6 159.73ZM93.8 158.3C92.53 158.4 93.26 161.53 94.5 159.75C94.49 158.99 94.36 158.21 93.8 158.3ZM87 203.8C87.4 206 86.3 208.8 88.7 210.6C89.09 207.65 89.1 205.28 87 203.77C87.01 203.71 87.01 203.64 87.01 203.58C86.98 203.62 86.94 203.66 86.9 203.7C86.93 203.72 86.97 203.75 87 203.77C87 203.78 87 203.79 87 203.8ZM93.8 185.89C93.77 185.79 93.73 185.69 93.7 185.6L93.9 185.7C93.87 185.76 93.83 185.83 93.8 185.89ZM98.17 199.8C98.18 199.87 98.19 199.93 98.2 200C98.22 199.94 98.24 199.89 98.26 199.83C98.24 199.82 98.22 199.81 98.2 199.8C98.19 199.8 98.18 199.8 98.17 199.8ZM101.2 204.6C101.6 201.5 102.7 198.6 100.2 197C99.24 196.43 98.74 198.51 98.26 199.83C99.78 200.5 99.13 203.91 101.2 204.6ZM116.19 148.9C116.16 148.94 116.13 148.97 116.1 149L116.2 148.8C116.2 148.83 116.2 148.87 116.19 148.9ZM111.8 297.73C111.8 297.72 111.8 297.71 111.8 297.7L111.9 297.7C111.87 297.71 111.83 297.72 111.8 297.73ZM66.34 311.3C66.33 311.33 66.31 311.37 66.3 311.4C66.32 311.46 66.33 311.52 66.35 311.57C66.37 311.55 66.38 311.52 66.4 311.5C66.38 311.43 66.36 311.36 66.34 311.3ZM66.2 316.9C67.17 314.97 66.83 313.22 66.35 311.57C65.29 313.15 65.02 314.73 66.2 316.9ZM66.3 306.9C65.06 308.52 65.91 309.87 66.34 311.3C66.94 309.84 67.67 308.46 66.3 306.9ZM89.61 423.19C89.61 423.1 89.6 423 89.6 422.9C89.59 422.77 89.58 422.65 89.56 422.52C89.51 422.61 89.46 422.71 89.4 422.8C89.47 422.93 89.54 423.06 89.61 423.19ZM89.6 415.2C88.65 418.04 89.32 420.25 89.56 422.52C90.8 420.3 90.75 417.98 89.6 415.2ZM90.6 429.1C91.25 426.42 90.44 424.77 89.61 423.19C89.64 425.12 89.08 427.29 90.6 429.1ZM88.74 309.69C88.76 309.66 88.78 309.63 88.8 309.6C88.76 309.52 88.73 309.44 88.69 309.36C88.66 309.4 88.63 309.45 88.6 309.5C88.65 309.56 88.69 309.62 88.74 309.69ZM88.9 303.9C88.8 303.8 88.5 303.8 88.4 303.9C87.05 305.35 87.75 307.17 88.69 309.36C89.82 307.6 90.17 305.85 88.9 303.9ZM90.1 316.3C89.71 314.27 90.08 311.58 88.74 309.69C86.66 312.63 88.34 316.42 87.82 319.66C89.67 320.08 90.58 318.51 90.1 316.3ZM88.1 326C89 327.3 90.2 326.6 90.2 324.9C90.11 322.65 88.87 321.36 87.8 319.89C87.87 321.96 86.82 324.13 88.1 326ZM87.82 319.66C87.75 319.64 87.68 319.62 87.6 319.6C87.67 319.7 87.73 319.79 87.8 319.89C87.8 319.86 87.8 319.83 87.8 319.8C87.81 319.75 87.82 319.71 87.82 319.66ZM98.1 469.2C98.05 469.15 98 469.11 97.96 469.06C97.97 469.14 97.99 469.22 98 469.3C98.03 469.27 98.07 469.24 98.1 469.2ZM96.1 458.7C94.72 465.9 94.7 466 97.96 469.06C97.37 465.94 96.78 462.8 96.1 458.7ZM99.9 471.9C100.7 472.7 101.9 472.7 101.9 471C102.1 467.3 103.1 463.3 100.6 459.7C98.83 462.66 100.35 466.97 98.1 469.2C98.7 470.1 99.2 471.2 99.9 471.9ZM67.11 274.7C67.07 274.84 67.04 274.97 67 275.1C67.03 275.31 67.06 275.51 67.09 275.72C67.13 275.54 67.16 275.37 67.2 275.2C67.17 275.03 67.14 274.87 67.11 274.7ZM66.6 301.1C67.48 292.7 68.26 284.21 67.09 275.72C65.77 282.08 65.34 294.29 66.6 301.1ZM67.4 252.7C66.91 260.9 65.85 267.77 67.11 274.7C68.52 269.07 68.86 258.26 67.4 252.7ZM87.93 293.77C87.92 293.71 87.91 293.65 87.9 293.6C87.9 293.59 87.9 293.58 87.9 293.56C87.87 293.58 87.83 293.59 87.8 293.6C87.84 293.66 87.89 293.71 87.93 293.77ZM88.7 271.9C88.4 279.09 88.2 286.38 87.9 293.56C92.08 291.97 90.68 277.65 88.7 271.9ZM88.6 298.5C88.8 298.6 89.4 298.3 89.5 297.9C90.45 295.52 88.86 294.86 87.93 293.77C88.18 295.35 86.57 297.44 88.6 298.5ZM90.87 367.19C90.85 367.26 90.82 367.33 90.8 367.4C90.83 367.54 90.87 367.68 90.9 367.81C90.93 367.71 90.97 367.6 91 367.5C90.95 367.4 90.91 367.29 90.87 367.19ZM89.2 394.3C88.4 396.1 92.2 398.1 92.1 394.6C92 385.64 92.97 376.59 90.9 367.81C88.7 375.07 91.96 387.6 89.2 394.3ZM91 353.5C91 352.9 90.6 352.1 90.2 351.7C89.6 351.1 88.8 350.6 88.2 351.5C87.9 351.9 87.7 353.1 87.9 353.5C90.53 357.5 89.17 362.93 90.87 367.19C92.25 362.66 90.61 358.13 91 353.5ZM71.19 393.05C71.16 393.1 71.13 393.15 71.1 393.2C71.16 393.29 71.22 393.39 71.27 393.5C71.28 393.43 71.29 393.37 71.3 393.3C71.26 393.22 71.23 393.13 71.19 393.05ZM74.8 409.6C74.8 405.5 74.8 401.6 74.8 397.7C74.8 395.3 74.8 395.3 72.1 394.9C71.76 394.82 71.57 394.08 71.27 393.5C69.91 402.54 70.53 405.63 74.8 409.6ZM71.2 387.1C70.06 389.49 70.46 391.32 71.19 393.05C72.3 391.2 72.37 389.34 71.2 387.1ZM83.4 348.61C83.4 348.5 83.4 348.4 83.4 348.3C83.34 348.22 83.28 348.14 83.23 348.05C83.22 348.07 83.21 348.08 83.2 348.1C83.27 348.27 83.33 348.44 83.4 348.61ZM84.3 344.8C84 335 83.4 325.2 83.7 315.4C83.79 313.52 83.27 311.72 82.46 310.18C80.12 319.93 81.69 330.06 80.8 340C80.51 343.57 81.62 345.75 83.23 348.05C83.82 347.07 84.3 346.08 84.3 344.8ZM82.46 310.18C82.47 310.12 82.48 310.06 82.5 310C82.47 309.91 82.45 309.81 82.42 309.71C82.38 309.77 82.34 309.84 82.3 309.9C82.35 309.99 82.4 310.09 82.46 310.18ZM83.8 298.6C82.4 283.5 85.5 254.7 87.2 215.4C85.4 216.7 85.4 218.5 85.3 220.2C83.71 243.02 79.17 297.14 82.42 309.71C84.49 306.35 84.09 302.43 83.8 298.6ZM83.6 359.1C84.74 354.74 84.53 351.64 83.4 348.61C83.34 351.71 82.44 354.94 83.6 359.1ZM103.5 256.3C100 271 98.6 310.6 101 317.5C102 307.5 104.2 263.8 103.5 256.3ZM94.2 214.2C92 215.7 91.9 217.3 91.8 218.7C91.2 226.3 91 234.1 88.7 241.4C87.5 245.2 87.6 250.9 90.8 251.4C92.7 251.7 92.4 249.2 92.5 247.6C93.1 236.9 93.6 226.1 94.2 214.2ZM89.5 610.1C90.9 601.4 89.3 598 87.7 577.3C87.3 571.9 88 566.1 84.7 560.9C83.4 564.9 84.3 568.1 84.5 571.2C85.6 584.1 88.6 596.8 89.5 610.1ZM101.8 817.8C102.4 825.1 104 831.8 107.3 838.3C108.6 832.7 108.9 831.9 107.7 830.2C105 826.6 104.4 821.4 101.8 817.8ZM63.9 139.9C61.6 144.4 60.7 149 61.3 154.5C65.3 150.1 66.1 145.4 63.9 139.9ZM99.8 658.4C100.4 653.1 99 649.8 97.5 646.4C97.7 650.4 96.8 654.5 99.8 658.4ZM100.6 326.4C99.3 330.6 99.5 333.5 99.9 336.4C100.7 333.6 101.6 331 100.6 326.4ZM101.1 629.3C102 624 102 624.1 99.9 620.9C99.9 623.9 100 626.5 101.1 629.3ZM99.6 219.4C99.9 215.6 101 213.2 99.4 209.4C98.5 213.2 98.1 215.6 99.6 219.4ZM87.6 655.4C87.3 649.2 87.3 649.2 85.7 645.9C86 649.2 86.4 652.3 87.6 655.4ZM83.6 519.9C84 520.6 84.3 522 85.1 521C86.7 519.1 85.2 514.4 83.9 515.8C82.9 516.9 83.2 518.4 83.6 519.9ZM66.4 122.6C67.4 120.5 67.8 118.9 67.1 116.5C65.9 118.5 65.6 120.1 66.4 122.6ZM83 385.6C84.1 384.5 83.1 381.3 82.1 382.4C81.1 383.5 81.8 386.7 83 385.6ZM130.1 912.4C130 911.8 130 911.3 129.9 910.8C129.7 910 129.8 908.9 128.9 908.6C128.9 910.1 129.4 911.3 130.1 912.4ZM96.1 697.5C96.1 697.7 96 698 96 698.2C96.3 699.3 96.6 700.4 97 701.4C97.2 701.9 97.5 701.7 97.3 700.9C97.1 699.8 96.7 698.7 96.4 697.6C96.5 697.5 96.2 697.5 96.1 697.5ZM88.8 344.1C89.5 346 90.5 345 90.3 343.9C90.2 343.2 89.7 342.7 89.1 343C88.9 343.1 88.9 343.7 88.8 344.1ZM112.9 653.5C114.5 653.1 112.2 649.7 112.1 651.9C112 652.6 112.3 653.2 112.9 653.5ZM96.2 573.5C96.2 574.3 95.8 574.9 97.2 578C97.4 578.5 97.9 578.3 97.8 577.6C97.6 576.5 97.2 575.4 96.9 574.3C96.8 574.1 96.6 574 96.2 573.5ZM70.6 209.3C71.5 207.8 71.7 206.4 70.8 204.8C69.8 206.3 69.8 207.7 70.6 209.3ZM69.8 215.2C69.7 215.9 69.4 216.8 69.4 217.7C69.4 218.2 69.9 218.3 70.1 217.7C70.3 217.1 70.4 216.4 70.5 215.7C70.6 215.1 70.4 214.8 69.8 215.2ZM71.8 194.6C71.6 195.3 71.3 196.1 71.2 197C71 198.3 72.7 197.8 72.7 195.1C72.7 194.4 72.4 194.2 71.8 194.6ZM103 453.7C102.7 454.7 102.4 454.2 103.3 456.6C103.6 455.5 103.8 454.2 103 453.7ZM97.1 666.1C97.3 666.4 97.5 666.8 97.7 667.1C98.3 665.5 98.3 666.1 97.5 664.8C97.4 665.3 97.3 665.7 97.1 666.1ZM100.6 345.6C100.7 344.9 100.9 344.2 100.9 343.6C101 342 99.3 342.9 99.8 344.7C99.9 345 100.2 345.2 100.6 345.6ZM110.1 844.9C110.3 845.3 110.5 845.7 110.6 846.1C110.5 844.5 110.7 845 110 844.2C110 844.4 110.1 844.6 110.1 844.9ZM109 505.7C110 505.4 109.3 503.6 108.5 504.4C108 504.9 108.4 505.2 109 505.7ZM101.2 235.5C101.4 236.4 102.1 236.6 102.1 234.9C102.1 234.8 101.8 234.5 101.7 234.5C101.5 234.8 101.3 235.2 101.2 235.5ZM87 100.4C87.5 101.6 88.1 100 87.9 99.1C87.8 98.5 87.5 98.5 87.3 99.1C87.2 99.6 87.1 100 87 100.4ZM109.5 665.5C109.8 666 110 666.9 110.4 667C111.2 667.2 110.9 666.2 110.8 665.6C110.7 664.9 110.5 664.2 109.8 664.2C109.7 664.3 109.6 665 109.5 665.5ZM88.4 401.6C88.6 401.8 88.9 402 89.1 402.2C89.2 401.8 89.4 401.3 89.3 400.9C89.2 399.4 88.1 399.7 88.4 401.6ZM99.1 484.2C99.3 484.1 99.5 484.1 99.6 484C100 483 99 482.5 98.8 483.1C98.5 483.6 98.6 484 99.1 484.2ZM106.7 392.05C106.7 392.03 106.7 392.02 106.7 392L106.7 392.3C106.7 392.22 106.7 392.13 106.7 392.05Z" />
		<path id="Layer" fill-rule="evenodd" class="shp0" d="M147 498.3C145.7 499.5 145.7 499.6 144.4 500.2C141.3 480.4 141.4 460.2 139.7 440.2C137.7 417.3 138.6 394.4 138.4 371.5C138.2 344.6 136.4 347.8 140.6 342.6C144 377 142.1 391.5 142.1 391.5C144.8 407.1 143.6 423.1 145.2 438.9C146.9 456 146.2 460.7 152.4 509.1C153.1 514.2 153.7 519.4 154.2 524.6C154.3 526 154.4 527.7 152.8 528.7C149.4 519.1 151.3 507.8 147 498.3Z" />
		<path id="Layer" fill-rule="evenodd" class="shp0" d="M125.1 354.4C122.6 357.5 123.7 361.5 124.1 364.9C124.9 372.3 123.8 379.7 124.8 387.1C125.2 390.5 125 395.2 121.4 397.1C120.3 397.7 121.6 400.6 119.7 401.8C116.2 395.3 119.2 388 117.7 381.7C119.7 380.4 120.7 383 122 381.8C122 381.3 122.2 380.8 122.1 380.4C114.9 360.7 120.4 361.9 118.2 338.2C117.4 329.5 118.5 320.8 118 312.1C117.4 300.2 117.4 259.7 119.4 248C119.8 245.4 121.8 244.9 123.1 247C123.5 247.7 124 248.8 124 249.6C124 253.5 126.7 266.3 125.5 269.3C121.3 279.8 123.4 291.1 123.3 302.1C123.2 306.06 122.02 310.51 124.53 314.1C122.42 316.88 123.2 320.54 123.3 323.9C123.4 326.1 123.1 328.4 123.3 330.3C124 338.3 123.4 346.5 125.1 354.3L125.1 354.4ZM124.53 314.1C124.55 314.06 124.57 314.03 124.6 314L124.6 314.2C124.58 314.17 124.55 314.13 124.53 314.1ZM121.7 273.2C122.5 271.2 123.3 269.2 122.1 265.6C121.2 268.8 121.3 271 121.7 273.2Z" />
		<path id="Layer" fill-rule="evenodd" class="shp0" d="M130.7 670.5C122.8 661.3 138 699.5 143.4 721.6C128.6 706.2 134.8 688.9 122.6 656C122.2 654.9 121.9 653.8 122.3 651.9C124.5 653.8 124.5 657.3 126.5 659.8C125.5 651.6 123.2 644.6 121.2 637.7C118.4 628.1 117.2 617.9 115.5 608.1C114.3 601.6 115.8 593.9 114.6 586.8C114.4 585.4 114.3 583.8 115.6 582.9C117.1 584.5 116.9 586.8 117 588.9C117.3 597.7 119.2 618.6 121 623.5C124.2 632 125.4 641.2 127 650.4C128.2 657 129.3 663.5 130.7 670.5Z" />
		<path id="Layer" fill-rule="evenodd" class="shp0" d="M62.8 49.1C64 47.9 65.4 47.1 66.2 45.4C66 44.9 66 44.4 65.8 44C65 42.6 62.4 43.6 62.9 40.6C63.4 37.6 65.3 39 66.6 39.5C73.3 41.9 80.2 41.9 86.9 44C93.2 45.9 105.2 40 102.4 47.9C101.5 50.4 99.4 51.5 98 53.4C96.1 56 94.8 53.7 93.1 53C82.4 48.8 74.1 44.5 68.2 48.5C66.3 49.7 64.5 48.6 62.8 49.1C62.7 49 62.8 49.1 62.8 49.1Z" />
		<path id="Layer" fill-rule="evenodd" class="shp0" d="M126.8 91.6C129 89.2 134.2 68.1 131.9 52.9C131.5 50.2 131.3 47.5 131.3 44.7C131.3 43 132.3 42.1 133.4 41.7C134.8 41.1 135.3 42.7 136 43.8C137.2 45.7 135.9 46.2 135 47C132.3 49.5 134.7 55.6 138 54.6C140.3 53.9 142.6 52.9 144.9 52.1C147.1 51.3 147.5 54.6 146.1 55.5C142.7 57.5 140.3 60.6 139.7 65.8C139.6 66.4 139 67.3 138.6 67.3C134.5 67.1 134.5 71.3 134.2 74.9C133.7 80.1 132.4 85 131.3 90C130.6 93.2 129.2 95.2 126.8 95.8L126.9 95.9C127.2 94.3 127.4 92.8 126.9 91.3L126.8 91.6Z" />
		<path id="Layer" fill-rule="evenodd" class="shp0" d="M147.4 110.3C151.3 104.4 150.8 90.6 156.2 93.4C158.2 94.4 159.8 91.6 162.4 91.4C158.6 107.7 151.5 120.8 144.8 134.3C145.6 125.8 149.8 114.6 147.4 110.2L147.4 110.3Z" />
		<path id="Layer" fill-rule="evenodd" class="shp0" d="M172.4 938.6C156 912 141.3 884 130.8 852.1C132.8 855.8 135.1 859.3 136.6 863.3C143.5 880.4 151.6 896.4 159.6 912.5C162.7 918.7 165.6 925 169.7 930.1C171.7 932.6 171.4 935.9 172.4 938.6Z" />
		<path id="Layer" fill-rule="evenodd" class="shp0" d="M131.2 253.8C130.9 247.3 131 241.4 131.7 235.5C134.2 212.4 131.2 200.8 138.2 193.6C138.8 194.8 138.3 196.6 137.8 198.3C136.7 202.7 136.5 206.9 138.1 211.3C139.1 214.1 139.9 217.4 135.8 217.9C133.7 218.1 134.1 221.7 134.4 223.6C135.6 232.9 133.3 241.8 132.6 250.9C132.5 251.7 132.5 252.8 131.2 253.8Z" />
		<path id="Layer" fill-rule="evenodd" class="shp0" d="M139.8 733.4C137.1 726.3 133.7 720.6 133.8 712.8C133.8 710.8 133.1 708.9 130.8 708.2C130.7 714.6 133.8 720.2 133.3 727.2C128.6 722.9 127.4 704.6 126.9 697.3C126.8 695.7 127.1 694.1 128.4 693.8C129.7 693.5 129.7 695.2 130 696.3C133.3 707.1 136.6 718 139.9 728.9C140.3 730 140.9 731.1 139.8 733.4Z" />
		<path id="Layer" fill-rule="evenodd" class="shp0" d="M113.7 485.4C121.4 495.3 115.5 505.3 120.2 530.6C120.8 533.7 121.1 537 119.2 540.1C117.7 532.4 117 524.7 116.6 516.8C116.5 514.3 116.6 511.8 115.2 509.8C115 509.5 114.6 508.9 114.7 508.5C115.6 501.1 112.3 493.9 113.7 485.4Z" />
		<path id="Layer" fill-rule="evenodd" class="shp0" d="M102.2 58.9C100.9 55.7 103.1 50.3 107.1 50.1C109.2 50 111.5 50.6 113.6 51.4C116.1 52.3 114.9 55.6 115.3 57.7C115.7 59.5 114.1 60 113.1 60.1C110.7 60.4 108.1 59.6 107.2 64.4C106.9 65.9 104.9 65.8 103.9 64.1C103.2 63 103 61.5 102.2 58.9Z" />
		<path id="Layer" fill-rule="evenodd" class="shp0" d="M147.4 110.1C143.7 114.3 144.4 121 142.4 126.7C141 124.1 143.3 120.9 141 118.7C139.4 119.4 138.8 122.8 136.2 123.3C136.1 116.7 138.2 111.2 139.9 105.7C140.1 105 140.8 104.6 141.2 105.4C142.5 108.4 143.1 106.3 143.7 104.7C145.1 100.9 148.2 103.1 146.4 107C145.7 108.5 145.6 109.8 147.2 110.3C147.4 110.3 147.4 110.1 147.4 110.1Z" />
		<path id="Layer" fill-rule="evenodd" class="shp0" d="M148.1 855.3C152.5 860.7 153.5 868.7 156.8 874.9C158.4 877.9 159.7 881.3 161.4 884.2C163.9 888.5 166.1 893.1 167.2 898.5C167.8 901.8 169.7 904 171.1 906.6C171.9 908.2 170.3 910.5 169.2 908.5C168.1 906.5 166.9 904.6 166.1 902.3C162.2 891.3 156.9 881.3 153.7 869.8C152.3 864.8 148.7 861.2 148.1 855.3Z" />
		<path id="Layer" fill-rule="evenodd" class="shp0" d="M115.7 204.7C117.6 206.3 118.9 208 118.6 211.7C117.8 219.7 117.6 227.8 114.8 236.3C113.1 231.7 112.1 228.3 113.1 223.7C114.5 217.6 115 211.1 115.9 204.8L115.7 204.7Z" />
		<path id="Layer" fill-rule="evenodd" class="shp0" d="M146.5 876.5C147.8 877.1 148.5 878.5 149.2 880C150.1 881.8 151.1 882.2 152.3 880.5C154.1 878.1 155.1 879.8 156.1 882C157.5 885.1 158.2 888.3 157.5 892.9C155.9 890.1 154.7 887.9 153.3 885.5C153.7 891.2 153 887.9 161.5 908.2L161.5 908C157.2 902.8 152.7 898 151.6 889.3C151 884.7 148.2 880.7 146.5 876.4L146.5 876.5Z" />
		<path id="Layer" fill-rule="evenodd" class="shp0" d="M106.5 267.3C107.9 266.1 109.4 264.4 110.3 268C110.9 270.3 111.8 272.8 111.7 275.1C111.3 282.5 112.3 289.9 111 297.2L111.1 297.2C108.3 290.7 106.2 284.3 108.3 276.4C109.1 273.3 109.1 269.5 106.6 267.1L106.5 267.3Z" />
		<path id="Layer" fill-rule="evenodd" class="shp0" d="M128.1 336.2C129.7 333.6 129.4 330.6 129 327.6C128.6 324.6 129 321.6 129.2 318.7C129.3 317.3 129.5 315.3 131.1 316.1C132.3 316.7 134.3 316.5 133.7 319.7C133.4 321.6 133.2 323.2 132.1 325C129.6 328.9 130.1 331.4 133.6 333.3C135.8 334.5 135.3 336.7 135.7 339.6C134.2 338.2 133 336.2 131.3 337.3C129.7 338.3 130.4 340.9 129.2 343C128.8 340.4 128.4 338.2 128 335.9L128.1 336.2Z" />
		<path id="Layer" fill-rule="evenodd" class="shp0" d="M160.8 865.6C166.6 875.2 169.1 887.3 174.8 898.3C168.4 894.4 170.8 898.2 159.9 866.6C160.2 866.2 160.5 865.9 160.8 865.6Z" />
		<path id="Layer" fill-rule="evenodd" class="shp0" d="M127.5 295.8C129.7 291 130.1 285.7 128.3 280.9C126.8 277 128.5 274.8 129.1 270.7C134 281.1 131 290.5 131 300.1C128.5 299.3 128.6 296.7 127.5 295.5L127.5 295.8Z" />
		<path id="Layer" fill-rule="evenodd" class="shp0" d="M166.3 90.4C165.7 89.1 166.6 86.4 165.5 86.5C161.7 86.6 162.9 83.8 164.6 82.9C168.1 81.1 170.1 77.5 172.3 73.9C176.2 67.4 179.8 70.4 177.3 74.6C176.7 75.6 176.3 77.4 175.7 77.5C170.3 78.2 169.7 85.2 166.9 89.3C166.7 89.7 166.4 90 166.1 90.3L166.3 90.4Z" />
		<path id="Layer" fill-rule="evenodd" class="shp0" d="M127.2 195C127 184.6 129.8 175.3 132.8 164.7C134.5 173.7 133.1 170.7 130.7 189.1C130.3 192.1 129.4 194.2 127.1 194.9L127.2 195Z" />
		<path id="Layer" fill-rule="evenodd" class="shp0" d="M147.9 916.6C147.4 916.4 146.6 916.3 146.4 915.8C142.8 908.4 139.4 901 135.5 892.9C138.9 894 138.9 894 140.2 898.3C141 901 141.6 903.9 143.4 906C144.3 904.4 143.6 901.6 145.5 901.2C146.5 901 147.1 902.3 147.7 903C148.3 903.7 148.5 905 147.9 905.6C144.3 909.4 146.8 913.1 147.9 916.8L147.9 916.6Z" />
		<path id="Layer" fill-rule="evenodd" class="shp0" d="M141 315.7C142 322.9 142.2 329.5 141.2 336.3C137.8 333 136.9 330.4 138 326C138.5 323.8 139.4 322.5 138.1 319.7C136.7 316.9 140.2 317.6 141 315.7Z" />
		<path id="Layer" fill-rule="evenodd" class="shp0" d="M182.8 937.5C181 934.1 170.2 915.9 172.7 913.4C173.5 912.6 174.1 913.5 174.5 914.2C175 914.9 175.7 915.6 175.8 916.5C177.4 924 181.8 929.7 182.8 937.5Z" />
		<path id="Layer" fill-rule="evenodd" class="shp0" d="M126.8 91.4C124 92.9 124.3 96.6 123.6 99.6C122.9 102.6 123 106.3 119.2 107.6C119.6 99.2 122.4 92.6 124.6 85.3C127 87.1 125.7 89.9 126.7 91.6L126.8 91.4Z" />
		<path id="Layer" fill-rule="evenodd" class="shp0" d="M126.4 202.6C126 199.9 126.7 197.5 127.2 195L127 194.9C130.4 197.4 128.9 208.1 128.3 220.8C128.3 221 127.7 221.2 127 221.7C126.6 217.5 125.2 213.8 126.5 209.5C127.2 207.2 126.7 204.6 126.2 202.1L126.4 202.6Z" />
		<path id="Layer" fill-rule="evenodd" class="shp0" d="M134.4 105.5C137.2 95.6 139.4 86.7 142.6 78.3C144.5 79.2 143.9 81 143.4 82C140.2 88 139.2 95.1 137.8 101.9C137.5 103.3 137.2 104.9 134.4 105.5Z" />
		<path id="Layer" fill-rule="evenodd" class="shp0" d="M120.8 420.9C121.2 424.5 121.2 428.4 123.8 430.9C124.9 432 125 433.9 124.8 435.7C124.6 437.2 124.4 438.1 123.3 436.3C121.4 433.1 122.1 438.4 120.5 437.5C120.6 432.2 117.4 426.6 120.9 421L120.8 420.9Z" />
		<path id="Layer" fill-rule="evenodd" class="shp0" d="M109.9 576.9C108.9 568.6 106.6 562.3 106.8 555C108.4 555.1 108 557 108.4 558C110.1 562.2 108.5 564.6 111.1 569C112.5 571.1 111.8 573.5 109.9 576.9Z" />
		<path id="Layer" fill-rule="evenodd" class="shp0" d="M114.4 373.6C115.7 381 115.3 373.5 115.1 400.2C113 392.2 112.9 379.2 114.5 373.6L114.4 373.6Z" />
		<path id="Layer" fill-rule="evenodd" class="shp0" d="M114.5 373.7C112.3 365.8 112.8 357.8 114.1 349.8C115.5 357.7 115.5 365.7 114.4 373.7L114.5 373.7Z" />
		<path id="Layer" fill-rule="evenodd" class="shp0" d="M116.4 438.3C117.1 445.1 118.9 451.7 118.1 458.7C116.7 452 115.5 445.3 116.4 438.3Z" />
		<path id="Layer" fill-rule="evenodd" class="shp0" d="M166.2 90.3C166.3 94.1 166.1 97.7 164.6 101.1C164.2 101.9 163.9 103 163 102.6C160.2 101.4 163.7 92.6 166.3 90.4L166.2 90.3Z" />
		<path id="Layer" fill-rule="evenodd" class="shp0" d="M110.7 88.8C109.9 89.4 109.3 90.7 108.4 90.3C107.2 89.8 107.7 88.3 108 87.2C108.4 85.6 108.8 83.9 108.4 82.2L108.3 82.4C109.7 81.3 111.1 80.3 113.1 78.8C112.8 82.9 110.1 85.3 110.6 89L110.7 88.8Z" />
		<path id="Layer" fill-rule="evenodd" class="shp0" d="M184.8 933.2C189.5 936.6 191.5 942.2 194.5 947.9C189.8 943.2 187 939 184.8 933.2Z" />
		<path id="Layer" fill-rule="evenodd" class="shp0" d="M137.9 684.7C137.1 678.5 134.2 673 134.5 666.4C135.9 672.3 138.3 678 137.8 684.6L137.9 684.7Z" />
		<path id="Layer" fill-rule="evenodd" class="shp0" d="M152.5 657.4C154.1 661.3 151.9 664.3 152.1 668C148.3 663.8 151 660.8 152.5 657.4Z" />
		<path id="Layer" fill-rule="evenodd" class="shp0" d="M120.9 421C118.4 414 117.6 411.7 119.6 405.7C121.5 410.9 119.8 416.1 120.8 420.9L120.9 421Z" />
		<path id="Layer" fill-rule="evenodd" class="shp0" d="M94.6 177.9C93.3 172.3 95.5 168 97.6 163.8L97.5 163.7C97.9 169 97.5 173.9 94.5 177.9L94.6 177.9Z" />
		<path id="Layer" fill-rule="evenodd" class="shp0" d="M171.1 86.8C173.1 85.2 175.9 89 173 91.5C170.5 93.7 168.7 88.6 171.1 86.8Z" />
		<path id="Layer" fill-rule="evenodd" class="shp0" d="M124.2 49.4C123.4 45.6 127.1 42.4 128.4 45.3C129.9 48.4 125.8 51.7 124.2 49.4Z" />
		<path id="Layer" fill-rule="evenodd" class="shp0" d="M141.6 839.1C143.2 841.4 144.9 842.2 146.5 843C146 844.9 145.1 846.8 144.4 846.5C142.2 845.5 141.3 843 141.6 839.1Z" />
		<path id="Layer" fill-rule="evenodd" class="shp0" d="M105.7 323.8C106.9 321.7 108.1 319.5 110.2 318.8C111.4 324.9 111.3 325 105.8 323.7C105.7 323.6 105.7 323.8 105.7 323.8Z" />
		<path id="Layer" fill-rule="evenodd" class="shp0" d="M101.4 530.6C105.1 533.3 104.3 537.7 106.2 540C106.5 540.4 106.1 541.5 105.6 541.8C105 542.1 104.3 541.7 104.3 541C104.4 537.6 102.4 535.3 101.4 530.6Z" />
		<path id="Layer" fill-rule="evenodd" class="shp0" d="M101 789.2C99.3 787.1 98.4 784.6 98.4 780.6C101 783.3 100.9 786.3 101 789.2Z" />
		<path id="Layer" fill-rule="evenodd" class="shp0" d="M105 118.3C104.3 121.6 104 125.2 101.1 128.4C101.7 123.6 102.8 120.6 105 118.3Z" />
		<path id="Layer" fill-rule="evenodd" class="shp0" d="M149.4 166.1C150.6 169.3 152.3 172.5 149.6 176.7C147.9 172.7 150 169.4 149.6 166.1L149.4 166.1Z" />
		<path id="Layer" fill-rule="evenodd" class="shp0" d="M137.9 684.6C139.5 689.5 141.5 694.2 141.1 699.9C140.1 694.9 139 689.8 138 684.8C137.9 684.7 137.9 684.6 137.9 684.6Z" />
		<path id="Layer" fill-rule="evenodd" class="shp0" d="M110.7 89C112.5 89.3 113.1 91.7 114.6 92.9C110 95 110 95 110.8 88.8L110.7 89Z" />
		<path id="Layer" fill-rule="evenodd" class="shp0" d="M169.9 697.8C172 700.6 172.5 702.7 172 705.8C170.6 703.8 170.3 701.6 169.9 697.8Z" />
		<path id="Layer" fill-rule="evenodd" class="shp0" d="M124.6 314.5C125.4 312.1 124.6 309.2 126.1 305.9C127 309.2 126.6 311.8 126.5 314.3C126.4 315.4 125.3 314.6 124.7 314.3L124.6 314.5Z" />
		<path id="Layer" fill-rule="evenodd" class="shp0" d="M125.1 354.7C125.7 353.2 126.3 351.7 127 349.9C128.2 351.7 130.3 352.8 127.9 355.7C126.1 357.9 125.9 355.7 125.2 354.4C125.1 354.4 125.1 354.7 125.1 354.7Z" />
		<path id="Layer" fill-rule="evenodd" class="shp0" d="M132.5 625C129.3 624.6 129 619.2 131.1 619.9C133.1 620.6 132.8 622.6 132.5 625Z" />
		<path id="Layer" fill-rule="evenodd" class="shp0" d="M114.9 267.2C114 263.6 114 260.1 116 255.3C116.9 260.4 116 263.8 114.8 267.1L114.9 267.2Z" />
		<path id="Layer" fill-rule="evenodd" class="shp0" d="M126.4 202.6L126.3 202.2C125.9 204.2 125.9 206.5 124.6 208.2C123.7 202.9 123.7 202.9 126.4 202.6Z" />
		<path id="Layer" fill-rule="evenodd" class="shp0" d="M148.5 641.1C150.5 643.4 150.2 647.2 151.5 650C149 646.4 149 646.4 148.5 641.1Z" />
		<path id="Layer" fill-rule="evenodd" class="shp0" d="M141.2 304.6C142 307.5 141.1 309.4 139.2 306.9C137.6 304.8 140.5 302 141.2 304.6Z" />
		<path id="Layer" fill-rule="evenodd" class="shp0" d="M146.5 876.4C145 873 143.7 869.4 142.9 865.6C144 869.3 146.9 871.8 146.5 876.5L146.5 876.4Z" />
		<path id="Layer" fill-rule="evenodd" class="shp0" d="M106.8 392.5C107.4 391.7 107.8 390 108.7 390.2C110.8 390.8 109.2 395.2 108.5 397.9L108.6 397.9C108 396 107.4 394.1 106.8 392.2L106.8 392.5Z" />
		<path id="Layer" fill-rule="evenodd" class="shp0" d="M153.1 60.8C154.3 59.5 155.5 58.3 156.9 60.2C157.1 60.5 157.1 61.8 156.8 62.1C155.2 63.6 154.2 62.1 153.1 60.8Z" />
		<path id="Layer" fill-rule="evenodd" class="shp0" d="M134.2 887.3C132.9 888.3 132.2 884.5 133.2 883.2C133.7 882.6 134.2 883.2 134.5 883.9C134.9 885.1 134.8 886.2 134.2 887.3Z" />
		<path id="Layer" fill-rule="evenodd" class="shp0" d="M158.9 563.8C160.1 565.4 161.4 566.8 160.9 570.1C158.7 568.6 158.8 566.3 158.9 563.8Z" />
		<path id="Layer" fill-rule="evenodd" class="shp0" d="M98.5 142.2C95.4 139 97.9 137.2 99.4 134.2C99.9 137.7 98.5 139.7 98.4 142.1C98.3 142.1 98.5 142.2 98.5 142.2Z" />
		<path id="Layer" fill-rule="evenodd" class="shp0" d="M161.6 908.2C164.7 904.5 164.8 908.4 165.9 911.1C163.6 911.2 162.7 909.4 161.6 908L161.6 908.2Z" />
		<path id="Layer" fill-rule="evenodd" class="shp0" d="M129.5 310.1C129.3 308.3 128.4 306.4 129.3 304.6C129.7 304.3 130.1 304.3 130.2 304.9C130.8 306.6 130.2 308.3 130.2 310C130.2 310.2 130 310.4 129.9 310.5C129.9 310.4 129.7 310.2 129.5 310.1Z" />
		<path id="Layer" fill-rule="evenodd" class="shp0" d="M128.2 74.8C129.4 76.9 128.3 80.2 127.3 79.9C126 79.5 126.4 78.1 126.6 76.9C126.8 76 127.1 75 128.2 74.8Z" />
		<path id="Layer" fill-rule="evenodd" class="shp0" d="M135.9 150C136.6 153.4 136.4 155.3 134.9 157.4C133.9 154.7 134.7 152.9 135.9 150Z" />
		<path id="Layer" fill-rule="evenodd" class="shp0" d="M114 136.5C115.2 135.9 116.3 139 114.3 140.5C113 141.5 112.4 138.5 114 136.5Z" />
		<path id="Layer" fill-rule="evenodd" class="shp0" d="M126.6 379.7C125.2 377.1 125.3 375.3 126.4 372.7C127.6 375.3 127.4 377.1 126.6 379.7Z" />
		<path id="Layer" fill-rule="evenodd" class="shp0" d="M147.9 916.8C149.5 918.7 150.8 921 151.6 925.1C149.2 922.3 148.5 919.6 148 916.6C147.9 916.6 147.9 916.8 147.9 916.8Z" />
		<path id="Layer" fill-rule="evenodd" class="shp0" d="M129.9 877C129.6 876.3 129.5 876.1 129.4 875.9C129 874.6 127.9 873.7 128.2 872.1C128.2 871.9 128.9 871.6 129.1 871.7C130.4 872.5 129.9 874.1 129.9 875.5C129.9 875.7 129.9 875.9 129.9 877Z" />
		<path id="Layer" fill-rule="evenodd" class="shp0" d="M156.7 841.4C154.6 839.7 154.5 837.2 154.3 834.6C155 836.9 155.8 839.1 156.7 841.4Z" />
		<path id="Layer" fill-rule="evenodd" class="shp0" d="M186.4 704.5C187.5 704 188.2 706.9 186.7 708.1C185.3 709.2 184.6 705.3 186.4 704.5Z" />
		<path id="Layer" fill-rule="evenodd" class="shp0" d="M122.3 451.6C121.3 449.4 121.2 447.7 122.2 445.6C123.7 447.7 123 449.4 122.3 451.6Z" />
		<path id="Layer" fill-rule="evenodd" class="shp0" d="M114.2 327.9C114.7 331.3 114.9 333.4 114 336.3C113.1 333.3 113.5 331.3 114.2 327.9Z" />
		<path id="Layer" fill-rule="evenodd" class="shp0" d="M121.9 224C122 221.5 122.2 219.1 123.2 216.8C123.8 220.1 123.8 220.1 121.8 223.9L121.9 224Z" />
		<path id="Layer" fill-rule="evenodd" class="shp0" d="M105.3 185.2C107.4 184.4 107.4 187.9 106.2 188.8C105.5 189.3 104.3 186.6 105.3 185.2Z" />
		<path id="Layer" fill-rule="evenodd" class="shp0" d="M153.1 950.1C152.5 950.3 152.2 949.8 152 949.1C151.8 948.5 151.8 947.7 152.4 947.5C152.6 947.5 153 947.9 153.2 948.2C153.5 948.9 153.6 949.6 153.1 950.1Z" />
		<path id="Layer" fill-rule="evenodd" class="shp0" d="M92.2 852.3C93.2 854 94 855.3 93.7 857.1C93.7 857.3 93 857.7 92.9 857.6C91.5 856.2 92.4 854.4 92.2 852.3Z" />
		<path id="Layer" fill-rule="evenodd" class="shp0" d="M94.5 177.8C94.9 180.5 96 183.5 93.1 185.2L93.3 185.3C93.2 182.6 93.6 180.1 94.7 177.9L94.5 177.8Z" />
		<path id="Layer" fill-rule="evenodd" class="shp0" d="M139.8 671.4C140.9 671.2 141.2 674.3 140.3 674.8C139.1 675.3 138.3 671.7 139.8 671.4Z" />
		<path id="Layer" fill-rule="evenodd" class="shp0" d="M140.3 797.5C140.7 798.7 141.1 800.1 141.5 801.4C141.4 801.4 141.4 801.5 141.3 801.5C141 800.5 140.2 798.1 140 797.1C140.1 797.3 140.2 797.3 140.3 797.5Z" />
		<path id="Layer" fill-rule="evenodd" class="shp0" d="M104.7 166.7C104.2 164.9 106.1 164.1 106.6 165.7C107.1 167.4 105.3 168.5 104.7 166.7Z" />
		<path id="Layer" fill-rule="evenodd" class="shp0" d="M156.6 936.1C156.3 935.3 156.3 934.6 157 934.4C157.7 934.1 158.3 934.7 158.7 935.5C159 936.1 159.1 936.9 158.6 937.3C157.6 938.2 157.1 936.9 156.6 936.1Z" />
		<path id="Layer" fill-rule="evenodd" class="shp0" d="M174.9 934.5C174.9 934 174.8 933 175.1 932.7C175.9 931.8 176.4 932.8 176.7 933.7C176.9 934.3 177 935.5 176.7 935.7C176 936.3 175.4 935.7 174.9 934.5Z" />
		<path id="Layer" fill-rule="evenodd" class="shp0" d="M108.4 171.9C108.5 171.9 108.8 172.6 108.8 172.9C108.1 177.7 106.7 172.3 108.4 171.9Z" />
		<path id="Layer" fill-rule="evenodd" class="shp0" d="M121.1 645.4C119.4 644.1 119.6 642.3 118.9 640.2C120.6 641.8 120.6 643.4 121.1 645.4Z" />
		<path id="Layer" fill-rule="evenodd" class="shp0" d="M130.4 889.8C130.9 891.3 131.2 892.5 131.6 893.8C130.7 892.8 130 891.8 130.4 889.8Z" />
		<path id="Layer" fill-rule="evenodd" class="shp0" d="M122.8 590C124.9 592.8 124 594.1 123.6 595.8C122.4 594.1 123.1 592.7 122.8 590Z" />
		<path id="Layer" fill-rule="evenodd" class="shp0" d="M115.8 204.7C116.8 203.7 116.9 201.2 118.9 201.4C118.5 204.3 116.8 203.9 115.7 204.7L115.8 204.7Z" />
		<path id="Layer" fill-rule="evenodd" class="shp0" d="M125.8 841.1C127.3 842.9 127.6 844.3 127.9 846.1C126.7 845 126.6 843.5 125.8 841.1Z" />
		<path id="Layer" fill-rule="evenodd" class="shp0" d="M127.5 295.6C127.1 296.9 126.8 298.2 126.4 299.8C125.9 296.1 125.9 296.1 127.5 295.8L127.5 295.6Z" />
		<path id="Layer" fill-rule="evenodd" class="shp0" d="M206.4 911.3C206.6 911.1 207.3 911.8 207.6 912.3C208.1 913.2 207.8 914.2 207.1 914.7C206 915.5 205.3 912 206.4 911.3Z" />
		<path id="Layer" fill-rule="evenodd" class="shp0" d="M113.2 249.1C113.2 251.2 113.7 253.5 112.1 256.1C111.8 253 111.6 250.8 113.4 249.1L113.2 249.1Z" />
		<path id="Layer" fill-rule="evenodd" class="shp0" d="M109.5 161.6C109.8 160.9 110 159.8 110.5 159.3C111.6 158.3 111.5 162.2 110.2 162.6C110.1 162.7 109.8 162.1 109.5 161.6Z" />
		<path id="Layer" fill-rule="evenodd" class="shp0" d="M115.6 148.4C114.6 148.2 113.6 148.1 113.5 146.8C113.5 146.6 113.7 146.3 113.8 146.3C114.6 146.1 115.1 147.7 115.5 148.6L115.6 148.4Z" />
		<path id="Layer" fill-rule="evenodd" class="shp0" d="M126.7 95.9C127.1 97.7 127.5 99.5 126.1 101.5C125.4 99.1 126.7 97.7 126.9 96L126.7 95.9Z" />
		<path id="Layer" fill-rule="evenodd" class="shp0" d="M134.2 459C134.3 458.5 134.5 457.8 134.7 457.2C134.9 457.5 135.3 457.8 135.3 458.2C135.5 459.4 134.8 460.4 134.2 459Z" />
		<path id="Layer" fill-rule="evenodd" class="shp0" d="M122 546C121.5 546.5 121.1 546.8 120.6 547.2C120.2 547.5 119.7 547.3 119.8 547C120 546.5 120.5 546 120.9 545.7C121.1 545.6 121.5 545.9 122 546Z" />
		<path id="Layer" fill-rule="evenodd" class="shp0" d="M128.3 743.3C129.3 743.5 129.3 745.7 128.5 745.9C127.1 746.3 127 743.1 128.3 743.3Z" />
		<path id="Layer" fill-rule="evenodd" class="shp0" d="M155.6 857.2C154.3 856.8 154.6 854.6 155.4 855.4C156.1 855.9 156.5 857.1 155.6 857.2Z" />
		<path id="Layer" fill-rule="evenodd" class="shp0" d="M177.7 906.5C176.4 906.1 175.9 902.7 177 903.9C177.4 904.4 177.8 904.9 178.1 905.5C178.4 906 178.2 906.4 177.7 906.5Z" />
		<path id="Layer" fill-rule="evenodd" class="shp0" d="M128.1 336C127.6 336.4 127.1 337.7 126.3 336.6C126.1 336.4 126.2 335.5 126.4 335.3C127.3 334.2 127.4 336.1 128 336.2C128.1 336.2 128.1 336 128.1 336Z" />
		<path id="Layer" fill-rule="evenodd" class="shp0" d="M67.3 797.8C66.6 798.6 66.3 797.3 66.3 796.2C66.3 795.4 66.6 795.3 66.9 796C67.1 796.5 67.2 797.3 67.3 797.8Z" />
		<path id="Layer" fill-rule="evenodd" class="shp0" d="M125.3 2.5C124.9 0.7 126.9 0.1 127.3 1.3C127.5 2.1 127.2 2.7 126.7 2.9C126.2 3 125.7 2.7 125.3 2.5Z" />
		<path id="Layer" fill-rule="evenodd" class="shp0" d="M70.9 808.9C71.8 808.3 72.6 809.9 71.9 810.9C71.1 812.2 69.9 809.6 70.9 808.9Z" />
		<path id="Layer" fill-rule="evenodd" class="shp0" d="M97.6 163.8C97.5 162.4 97.2 160.9 98 159.5C98.8 161.3 97.4 162.2 97.4 163.6C97.5 163.7 97.6 163.8 97.6 163.8Z" />
		<path id="Layer" fill-rule="evenodd" class="shp0" d="M115.4 836.3C115.1 836.3 114.7 836.6 114.5 836.4C113.6 835.4 114.7 833.8 115.4 834.6C115.9 835.1 115.8 835.8 115.4 836.3Z" />
		<path id="Layer" fill-rule="evenodd" class="shp0" d="M149.6 166.2C150.2 165.1 150.1 163.4 151.5 162.3C151.6 164.7 150.7 165.6 149.5 166.1C149.4 166.1 149.6 166.2 149.6 166.2Z" />
		<path id="Layer" fill-rule="evenodd" class="shp0" d="M146.5 831.2C146.4 830.6 146 830 146.4 829.3C147 830.2 147.8 831.3 147.2 832.1C147 831.8 146.7 831.5 146.5 831.2Z" />
		<path id="Layer" fill-rule="evenodd" class="shp0" d="M125.7 288.3C125.8 288 126 287.6 126.2 287.2C126.4 287.5 126.7 287.8 126.8 288.1C126.9 288.7 126.9 289.5 126.1 289.4C125.9 289.5 125.8 288.8 125.7 288.3Z" />
		<path id="Layer" fill-rule="evenodd" class="shp0" d="M151.5 850.8C151.2 849.5 152.8 848.8 153.2 849.7C153.9 851.1 151.7 852.3 151.5 850.8Z" />
		<path id="Layer" fill-rule="evenodd" class="shp0" d="M163.5 857.2C163.8 858 164.1 858.5 164.3 859.1C164.6 860.3 163.7 860 163.4 858.5C163.3 858.2 163.4 857.8 163.5 857.2Z" />
		<path id="Layer" fill-rule="evenodd" class="shp0" d="M145 642.8C144.8 642.4 144.5 642.1 144.4 641.6C144 640.4 145 640.6 145 641.5C145.1 641.9 145 642.4 145 642.8Z" />
		<path id="Layer" fill-rule="evenodd" class="shp0" d="M170.2 1002.3C170.6 1002.6 171.1 1002.8 171.4 1003.2C171.7 1003.6 172.1 1004.5 171.3 1004.6C170.9 1004.7 170.4 1004 170 1003.6C169.7 1003.2 169.7 1002.7 170.2 1002.3Z" />
		<path id="Layer" fill-rule="evenodd" class="shp0" d="M121.8 223.9C122.2 225.4 122.9 227.4 121.7 227.4C121.4 227.4 121.8 224.4 121.9 224L121.8 223.9Z" />
		<path id="Layer" fill-rule="evenodd" class="shp0" d="M195.4 888.5C195.1 888.3 194.7 888.3 194.6 888C194.3 887.3 195 886.6 195.5 887.4C195.8 887.8 195.7 888.2 195.4 888.5Z" />
		<path id="Layer" fill-rule="evenodd" class="shp0" d="M114.7 267.1C115.4 268.5 115.7 270 115.3 272.6C114.2 270.2 114.6 268.7 114.9 267.1L114.7 267.1Z" />
		<path id="Layer" fill-rule="evenodd" class="shp0" d="M113.3 249.2C112.8 248.2 112.6 248.2 112.7 246C112.7 245.9 113.2 245.9 113.5 245.8C113.6 248.6 113.6 247.7 113.1 249.1C113.2 249.1 113.3 249.2 113.3 249.2Z" />
		<path id="Layer" fill-rule="evenodd" class="shp0" d="M137.7 665.2C137.9 665.4 138.3 665.6 138.4 666C139 668.1 137.5 667.8 137.3 666.4C137.3 666 137.6 665.6 137.7 665.2Z" />
		<text id="Now, a new  unanswered question:" style="transform: matrix(1,0,0,1,4,235)" >
			<tspan x="0" y="0" class="txt1">Now, a new </tspan>
			<tspan x="0" y="17.92" class="txt1">unanswered question:</tspan>
			<tspan x="0" y="35.84" class="txt1">whither art in our age </tspan>
			<tspan x="0" y="53.76" class="txt1">of total artifice?</tspan>
			<tspan x="0" y="89.6" class="txt1">This morning I walked</tspan>
			<tspan x="0" y="107.52" class="txt1">into the cold sea</tspan>
			<tspan x="0" y="125.44" class="txt1">with a prayer on my lips,</tspan>
			<tspan x="0" y="143.36" class="txt1">lifted to the misty sky</tspan>
			<tspan x="0" y="161.28" class="txt1">by swelling blue</tspan>
			<tspan x="0" y="179.2" class="txt1">and three buoyant words.</tspan>
			<tspan x="0" y="215.04" class="txt1">Na kuja abad,</tspan>
			<tspan x="0" y="232.96" class="txt1">for there is no where</tspan>
			<tspan x="0" y="250.88" class="txt1">in this web of light</tspan>
			<tspan x="0" y="268.8" class="txt1">we share, one state</tspan>
			<tspan x="0" y="286.72" class="txt1">instilled, soft...</tspan>
			<tspan x="0" y="322.56" class="txt1">where there is</tspan>
			<tspan x="0" y="340.48" class="txt1">not even when,</tspan>
			<tspan x="0" y="358.4" class="txt1">just an order of events</tspan>
			<tspan x="0" y="376.32" class="txt1">in which we still sense </tspan>
			<tspan x="0" y="394.24" class="txt1">hope, here, on the edge</tspan>
			<tspan x="0" y="412.16" class="txt1">of our unknown horizons.</tspan>
		</text>
		<text id="Alt-ar(t) " style="transform: matrix(1,0,0,1,3,178)" >
			<tspan x="0" y="0" class="txt2">Alt-ar(t)</tspan>
		</text>
	</g>
</svg>