<svg width="34" height="34" viewBox="0 0 34 34" fill="none" xmlns="http://www.w3.org/2000/svg">
<path fill-rule="evenodd" clip-rule="evenodd" d="M15.29 28C22.837 28 26.965 21.0741 26.965 15.0686C26.965 14.8715 26.965 14.6754 26.953 14.4805C27.756 13.8381 28.449 13.0406 29 12.1279C28.252 12.4957 27.457 12.7371 26.644 12.8435C27.5 12.2752 28.141 11.3825 28.448 10.3292C27.642 10.8586 26.761 11.2319 25.842 11.4324C24.288 9.60258 21.689 9.51398 20.036 11.2352C18.971 12.345 18.518 13.9998 18.849 15.5781C15.55 15.3943 12.476 13.6686 10.392 10.8298C9.303 12.9066 9.86 15.5626 11.663 16.8962C11.01 16.8752 10.371 16.6802 9.8 16.328V16.3856C9.801 18.5488 11.178 20.4118 13.092 20.8404C12.488 21.0232 11.854 21.0497 11.24 20.9179C11.777 22.7699 13.318 24.0381 15.073 24.0746C13.62 25.3395 11.825 26.0262 9.977 26.024C9.651 26.0229 9.325 26.0019 9 25.9587C10.877 27.2922 13.06 28 15.29 27.9967" fill="#65BAF7"/>
</svg>
